<svg id="Layer_1" data-name="Layer 1" xmlns="http://www.w3.org/2000/svg" width="180" height="421.334" viewBox="0 0 250.34 586"><defs><style>.cls-1,.cls-3,.cls-4{fill:none;}.cls-1{stroke:#304752;}.cls-1,.cls-4{stroke-linecap:round;stroke-linejoin:round;}.cls-1,.cls-3{stroke-width:4px;}.cls-2{fill:#304752;}.cls-3{stroke:#14bf96;stroke-miterlimit:10;}.cls-4{stroke:#10a7e3;stroke-width:3.34px;}</style></defs><title>pig latin v1</title><line class="cls-1" x1="124.67" y1="174" x2="124.67" y2="197.67"/><polygon class="cls-2" points="115.78 190.93 124.67 194.71 133.56 190.93 124.67 212 115.78 190.93"/><path d="M102.06,28.32a1.05,1.05,0,0,1-.28.33.61.61,0,0,1-.36.11,1,1,0,0,1-.5-.17c-.17-.11-.38-.24-.63-.38a5.41,5.41,0,0,0-.86-.37,3.68,3.68,0,0,0-1.16-.17,3.35,3.35,0,0,0-1.06.15,2.17,2.17,0,0,0-.77.41,1.65,1.65,0,0,0-.46.62,2.06,2.06,0,0,0-.15.79,1.35,1.35,0,0,0,.31.92,2.52,2.52,0,0,0,.82.63,7,7,0,0,0,1.16.47c.43.13.87.28,1.33.44a10.89,10.89,0,0,1,1.33.54,4.38,4.38,0,0,1,1.16.78,3.42,3.42,0,0,1,.81,1.15,3.94,3.94,0,0,1,.31,1.66,5.4,5.4,0,0,1-.36,2,4.65,4.65,0,0,1-1.06,1.62,4.9,4.9,0,0,1-1.71,1.08,6.34,6.34,0,0,1-2.3.39,7.18,7.18,0,0,1-1.47-.14,8.1,8.1,0,0,1-1.4-.42,7.78,7.78,0,0,1-1.25-.65,6.16,6.16,0,0,1-1-.84l.86-1.4a1,1,0,0,1,.28-.25.72.72,0,0,1,.37-.11,1,1,0,0,1,.58.23l.75.49a6.34,6.34,0,0,0,1,.49,3.86,3.86,0,0,0,1.39.22,2.82,2.82,0,0,0,1.93-.59,2.1,2.1,0,0,0,.68-1.69,1.62,1.62,0,0,0-.3-1A2.44,2.44,0,0,0,99.2,35,5.84,5.84,0,0,0,98,34.53l-1.32-.4a12.47,12.47,0,0,1-1.32-.52,4.49,4.49,0,0,1-1.16-.79,3.69,3.69,0,0,1-.82-1.22,4.76,4.76,0,0,1-.31-1.8,4.41,4.41,0,0,1,.34-1.67,4.3,4.3,0,0,1,1-1.44,4.71,4.71,0,0,1,1.6-1,5.89,5.89,0,0,1,2.18-.38,7.28,7.28,0,0,1,2.56.44,5.63,5.63,0,0,1,2,1.21Z"/><path d="M116.53,27.87h-4.72V41.13H108.9V27.87h-4.72V25.48h12.35Z"/><path d="M130.48,41.13h-2.26a.93.93,0,0,1-.61-.19,1.12,1.12,0,0,1-.36-.47l-1.17-3.19H119.6l-1.17,3.19a1,1,0,0,1-.34.46,1,1,0,0,1-.62.2H115.2l6.16-15.65h3Zm-5.15-5.91L123.43,30a8.36,8.36,0,0,1-.29-.82c-.11-.32-.21-.66-.31-1-.09.37-.19.71-.29,1s-.2.61-.29.84l-1.9,5.19Z"/><path d="M144.32,41.13h-2.63a1.14,1.14,0,0,1-1.08-.58l-3.29-5a1.19,1.19,0,0,0-.41-.4,1.39,1.39,0,0,0-.65-.12H135v6.12H132.1V25.48h4.77a9.93,9.93,0,0,1,2.74.33,5.19,5.19,0,0,1,1.87.92,3.58,3.58,0,0,1,1.08,1.43,4.69,4.69,0,0,1,.35,1.82,4.56,4.56,0,0,1-.24,1.49,4.23,4.23,0,0,1-.67,1.28,4.55,4.55,0,0,1-1.08,1,5.52,5.52,0,0,1-1.47.68,3.31,3.31,0,0,1,.52.38,2.84,2.84,0,0,1,.43.53Zm-7.49-8.21a4.47,4.47,0,0,0,1.44-.2,2.85,2.85,0,0,0,1-.57,2.21,2.21,0,0,0,.59-.86,3,3,0,0,0,.2-1.09,2.19,2.19,0,0,0-.79-1.83,3.72,3.72,0,0,0-2.4-.64H135v5.19Z"/><path d="M156.55,27.87h-4.72V41.13h-2.92V27.87h-4.72V25.48h12.36Z"/><ellipse class="cls-3" cx="124.54" cy="33.5" rx="103" ry="31.5"/><rect class="cls-4" x="1.69" y="108.5" width="246" height="62"/><path d="M81.36,145.74H79.11a1,1,0,0,1-.62-.19,1.12,1.12,0,0,1-.36-.47L77,141.89H70.48l-1.17,3.19a1.1,1.1,0,0,1-.33.46,1,1,0,0,1-.62.2H66.08l6.17-15.65h3Zm-5.14-5.91-1.91-5.21c-.09-.23-.19-.5-.29-.82s-.2-.66-.3-1c-.1.37-.19.71-.29,1s-.2.6-.3.83l-1.89,5.19Z"/><path d="M88.07,130.09a9.1,9.1,0,0,1,2.72.36,5.31,5.31,0,0,1,1.9,1,4.28,4.28,0,0,1,1.11,1.58,5.54,5.54,0,0,1,.36,2,5.62,5.62,0,0,1-.38,2.08,4.23,4.23,0,0,1-1.14,1.63,5.14,5.14,0,0,1-1.9,1.06,8.55,8.55,0,0,1-2.67.38H85.9v5.51H83V130.09Zm0,7.87a4.5,4.5,0,0,0,1.4-.2,2.68,2.68,0,0,0,1-.58,2.35,2.35,0,0,0,.59-.91,3.41,3.41,0,0,0,.2-1.19,3.17,3.17,0,0,0-.2-1.14,2.26,2.26,0,0,0-.58-.87,2.62,2.62,0,0,0-1-.54,4.58,4.58,0,0,0-1.41-.19H85.9V138Z"/><path d="M101.48,130.09a9.08,9.08,0,0,1,2.71.36,5.31,5.31,0,0,1,1.9,1,4.06,4.06,0,0,1,1.11,1.58,5.54,5.54,0,0,1,.36,2,5.42,5.42,0,0,1-.38,2.08,4.31,4.31,0,0,1-1.13,1.63,5.22,5.22,0,0,1-1.9,1.06,8.64,8.64,0,0,1-2.67.38H99.3v5.51H96.39V130.09Zm0,7.87a4.43,4.43,0,0,0,1.39-.2,2.68,2.68,0,0,0,1-.58,2.24,2.24,0,0,0,.59-.91,3.41,3.41,0,0,0,.2-1.19,3.17,3.17,0,0,0-.2-1.14,2.26,2.26,0,0,0-.58-.87,2.62,2.62,0,0,0-1-.54,4.47,4.47,0,0,0-1.4-.19H99.3V138Z"/><path d="M112.71,132.4v4.34h5.48V139h-5.48v4.42h7v2.33h-9.88V130.09h9.88v2.31Z"/><path d="M135.44,130.09v15.65H134a1.39,1.39,0,0,1-.58-.11,1.34,1.34,0,0,1-.45-.39l-8.18-10.43a12.45,12.45,0,0,1,.07,1.32v9.61h-2.57V130.09h1.85a.61.61,0,0,1,.24.07.81.81,0,0,1,.2.14l.21.24L133,141c0-.25,0-.5,0-.74s0-.48,0-.69v-9.51Z"/><path d="M152.83,137.91a8.36,8.36,0,0,1-.58,3.17,7.19,7.19,0,0,1-1.61,2.47,7.11,7.11,0,0,1-2.5,1.62,8.87,8.87,0,0,1-3.25.57h-6V130.09h6a8.67,8.67,0,0,1,3.25.58,7.09,7.09,0,0,1,4.11,4.08A8.34,8.34,0,0,1,152.83,137.91Zm-3,0a7.24,7.24,0,0,0-.34-2.31,4.81,4.81,0,0,0-1-1.73,4.31,4.31,0,0,0-1.56-1.09,5.36,5.36,0,0,0-2.06-.38h-3v11h3a5.37,5.37,0,0,0,2.06-.37,4.44,4.44,0,0,0,1.56-1.09,4.9,4.9,0,0,0,1-1.73A7.3,7.3,0,0,0,149.84,137.91Z"/><path d="M160.62,135.68a5.51,5.51,0,0,1-.7-1.78,5,5,0,0,1,.6-3.56,5.47,5.47,0,0,1,1.29-1.49l.84.51a.35.35,0,0,1,.19.35.5.5,0,0,1-.14.32,3.33,3.33,0,0,0-.43.72,3.59,3.59,0,0,0-.29,1,3.92,3.92,0,0,0,0,1.18,3.3,3.3,0,0,0,.49,1.26.61.61,0,0,1,.1.55.55.55,0,0,1-.35.33Zm3.6,0a5.53,5.53,0,0,1-.71-1.78,5,5,0,0,1,.6-3.56,5.69,5.69,0,0,1,1.3-1.49l.83.51a.36.36,0,0,1,.2.35.56.56,0,0,1-.14.32,3.33,3.33,0,0,0-.44.72,3.59,3.59,0,0,0-.28,1,3.9,3.9,0,0,0,0,1.18,3.47,3.47,0,0,0,.49,1.26.62.62,0,0,1,.11.55.59.59,0,0,1-.36.33Z"/><path d="M168.52,138.09h5.6v2.23h-5.6Z"/><path d="M178.16,129a5.53,5.53,0,0,1,.71,1.78,5,5,0,0,1-.6,3.56,5.69,5.69,0,0,1-1.3,1.49l-.84-.51a.33.33,0,0,1-.15-.16.3.3,0,0,1,0-.18.58.58,0,0,1,0-.18.56.56,0,0,1,.1-.15,3,3,0,0,0,.44-.72,3.69,3.69,0,0,0,.28-1,3.62,3.62,0,0,0,0-1.18,3.47,3.47,0,0,0-.49-1.26.64.64,0,0,1-.1-.55.55.55,0,0,1,.35-.33Zm3.6,0a5.51,5.51,0,0,1,.7,1.78,5,5,0,0,1-.6,3.56,5.47,5.47,0,0,1-1.29,1.49l-.85-.51a.38.38,0,0,1-.15-.16.39.39,0,0,1,0-.18.61.61,0,0,1,.05-.18.4.4,0,0,1,.1-.15,3.33,3.33,0,0,0,.43-.72,3.69,3.69,0,0,0,.29-1,3.92,3.92,0,0,0,0-1.18,3.5,3.5,0,0,0-.5-1.26.68.68,0,0,1-.1-.55.57.57,0,0,1,.35-.33Z"/><rect class="cls-4" x="2.67" y="418.5" width="246" height="62"/><path d="M43.64,455.74H41a1.14,1.14,0,0,1-1.08-.58l-3.29-5a1.29,1.29,0,0,0-.41-.4,1.44,1.44,0,0,0-.66-.12H34.33v6.12H31.42V440.09h4.77a10,10,0,0,1,2.74.33,5.36,5.36,0,0,1,1.87.92,3.58,3.58,0,0,1,1.08,1.43,4.68,4.68,0,0,1,.34,1.82,4.52,4.52,0,0,1-.23,1.49,4.46,4.46,0,0,1-.67,1.28,4.55,4.55,0,0,1-1.08,1,5.52,5.52,0,0,1-1.47.68,2.83,2.83,0,0,1,.52.39,2.48,2.48,0,0,1,.43.52Zm-7.49-8.2a4.35,4.35,0,0,0,1.43-.21,2.81,2.81,0,0,0,1-.57,2.32,2.32,0,0,0,.59-.86,3,3,0,0,0,.2-1.09,2.22,2.22,0,0,0-.79-1.83,3.72,3.72,0,0,0-2.4-.64H34.33v5.2Z"/><path d="M48.26,442.4v4.34h5.48V449H48.26v4.42h7v2.33H45.34V440.09h9.87v2.31Z"/><path d="M74.77,440.09v15.65H72.2V445.63a12.41,12.41,0,0,1,.07-1.31l-4.73,8.89a1.11,1.11,0,0,1-1,.64H66.1a1.09,1.09,0,0,1-1-.64l-4.79-8.92.06.7c0,.23,0,.44,0,.64v10.11H57.79V440.09h2.53a.65.65,0,0,1,.47.19,1.06,1.06,0,0,1,.17.26l4.69,8.7A7.75,7.75,0,0,1,66,450c.11.25.21.5.31.76.1-.27.21-.53.32-.78s.22-.48.34-.72l4.62-8.67a1.09,1.09,0,0,1,.19-.26.6.6,0,0,1,.21-.14.7.7,0,0,1,.25,0h2.54Z"/><path d="M93.18,447.91a9,9,0,0,1-.56,3.19A7.49,7.49,0,0,1,91,453.64a7.32,7.32,0,0,1-2.5,1.67,8.94,8.94,0,0,1-6.49,0,7.22,7.22,0,0,1-2.5-1.67,7.37,7.37,0,0,1-1.62-2.54,9,9,0,0,1,0-6.37,7.37,7.37,0,0,1,1.62-2.54,7.25,7.25,0,0,1,2.5-1.68,9.07,9.07,0,0,1,5.48-.32,7.65,7.65,0,0,1,1.93.78A6.9,6.9,0,0,1,91,442.19a7.54,7.54,0,0,1,1.19,1.61,8,8,0,0,1,.74,1.93A9.1,9.1,0,0,1,93.18,447.91Zm-3,0a7.23,7.23,0,0,0-.35-2.31,5.09,5.09,0,0,0-1-1.74,4.31,4.31,0,0,0-1.56-1.09,5.77,5.77,0,0,0-4.12,0,4.31,4.31,0,0,0-1.56,1.09,5,5,0,0,0-1,1.74,7.83,7.83,0,0,0,0,4.63,4.9,4.9,0,0,0,1,1.73,4.44,4.44,0,0,0,1.56,1.09,5.92,5.92,0,0,0,4.12,0A4.44,4.44,0,0,0,88.88,452a5,5,0,0,0,1-1.73A7.29,7.29,0,0,0,90.21,447.91Z"/><path d="M108.66,440.09l-6.33,15.65H99.7l-6.32-15.65h2.34a1,1,0,0,1,.61.18,1.09,1.09,0,0,1,.36.48l3.69,9.55c.13.31.24.65.36,1s.21.76.32,1.16c.08-.4.18-.79.28-1.16a10.21,10.21,0,0,1,.33-1l3.67-9.55a1,1,0,0,1,.34-.46,1,1,0,0,1,.63-.2Z"/><path d="M113.2,442.4v4.34h5.48V449H113.2v4.42h7v2.33h-9.87V440.09h9.87v2.31Z"/><path d="M128.36,455.74v-9.09l-1-.15a1.2,1.2,0,0,1-.51-.23.56.56,0,0,1-.19-.45v-1.09h1.66v-.36a5.15,5.15,0,0,1,.34-1.89,4.06,4.06,0,0,1,1-1.51,4.87,4.87,0,0,1,1.73-1,7.59,7.59,0,0,1,2.46-.36c.31,0,.62,0,.93.05a3.61,3.61,0,0,1,.82.16l-.09,1.38a.3.3,0,0,1-.27.3,3.53,3.53,0,0,1-.62.05,7.33,7.33,0,0,0-1.76.18,2.89,2.89,0,0,0-1.14.55,1.88,1.88,0,0,0-.63.91,3.77,3.77,0,0,0-.19,1.27v.27h6.88v11h-2.67v-9.1H131v9.1Z"/><path d="M143.1,446.56a4.69,4.69,0,0,1,1.23-1.56,2.64,2.64,0,0,1,1.69-.57,2.08,2.08,0,0,1,1.23.33l-.17,2a.5.5,0,0,1-.16.27.4.4,0,0,1-.27.08,2.58,2.58,0,0,1-.48-.05,3.48,3.48,0,0,0-.63-.05,2.18,2.18,0,0,0-.79.13,1.86,1.86,0,0,0-.62.37,2.61,2.61,0,0,0-.49.59,5.29,5.29,0,0,0-.39.79v6.84h-2.68V444.63h1.57a.86.86,0,0,1,.58.15.87.87,0,0,1,.21.52Z"/><path d="M155.39,446.8a.65.65,0,0,1-.22.24.57.57,0,0,1-.31.07.82.82,0,0,1-.41-.11l-.52-.24a4.18,4.18,0,0,0-.66-.24,3.33,3.33,0,0,0-.89-.11,2,2,0,0,0-1.23.33,1.06,1.06,0,0,0-.45.88.81.81,0,0,0,.23.6,2,2,0,0,0,.62.43,6.12,6.12,0,0,0,.87.33c.32.1.65.2,1,.32l1,.39a3.63,3.63,0,0,1,.87.57,2.46,2.46,0,0,1,.85,2,3.76,3.76,0,0,1-.29,1.48,3.15,3.15,0,0,1-.85,1.17,4,4,0,0,1-1.39.77,6.15,6.15,0,0,1-1.91.28,5.91,5.91,0,0,1-1.12-.11,7.37,7.37,0,0,1-1.05-.28,5.72,5.72,0,0,1-.93-.44,3.61,3.61,0,0,1-.75-.54l.61-1a1,1,0,0,1,.29-.28.8.8,0,0,1,.41-.1.92.92,0,0,1,.47.14l.51.31a4.46,4.46,0,0,0,.69.3,2.87,2.87,0,0,0,1,.14,2.81,2.81,0,0,0,.82-.11,1.85,1.85,0,0,0,.56-.3,1.06,1.06,0,0,0,.33-.43,1.44,1.44,0,0,0,.1-.5.93.93,0,0,0-.23-.64,2.07,2.07,0,0,0-.62-.43,4.75,4.75,0,0,0-.88-.33l-1-.32a9.55,9.55,0,0,1-1-.41A3.31,3.31,0,0,1,149,450a2.69,2.69,0,0,1-.62-.88,3.1,3.1,0,0,1-.23-1.25,3.19,3.19,0,0,1,.27-1.3,3.11,3.11,0,0,1,.8-1.08,3.92,3.92,0,0,1,1.31-.73,5.29,5.29,0,0,1,1.81-.28,5.6,5.6,0,0,1,2.09.38,4.68,4.68,0,0,1,1.57,1Z"/><path d="M161.84,455.92a3,3,0,0,1-2.23-.82,3.19,3.19,0,0,1-.77-2.26v-6.2H157.7a.55.55,0,0,1-.37-.14.58.58,0,0,1-.15-.43V445l1.79-.29.56-3a.57.57,0,0,1,.21-.34.61.61,0,0,1,.39-.12h1.38v3.5h3v1.91h-3v6a1.21,1.21,0,0,0,.26.81.88.88,0,0,0,.69.29,1.25,1.25,0,0,0,.42-.06l.29-.12.23-.13a.33.33,0,0,1,.19-.06.34.34,0,0,1,.2.06,1,1,0,0,1,.16.18l.8,1.3a4.27,4.27,0,0,1-1.34.74A5.21,5.21,0,0,1,161.84,455.92Z"/><path d="M174.16,439.65v16.09h-2.68V439.65Z"/><path d="M178.89,450.52a5.09,5.09,0,0,0,.3,1.48,3,3,0,0,0,.63,1,2.55,2.55,0,0,0,.93.61,3.77,3.77,0,0,0,2.3,0,5,5,0,0,0,.82-.33c.24-.12.44-.24.62-.34a1.06,1.06,0,0,1,.52-.15.53.53,0,0,1,.49.25l.77,1a4.57,4.57,0,0,1-1,.88,5.9,5.9,0,0,1-1.16.56,6.59,6.59,0,0,1-1.22.3,8.47,8.47,0,0,1-1.21.08,5.82,5.82,0,0,1-2.15-.38,4.83,4.83,0,0,1-1.73-1.14,5.16,5.16,0,0,1-1.16-1.86,7.24,7.24,0,0,1-.43-2.57,6.29,6.29,0,0,1,.37-2.14,5.12,5.12,0,0,1,1.06-1.74,5,5,0,0,1,1.68-1.18,5.48,5.48,0,0,1,2.23-.43,5.31,5.31,0,0,1,1.94.34,4.23,4.23,0,0,1,1.53,1,4.54,4.54,0,0,1,1,1.58,5.87,5.87,0,0,1,.36,2.13,1.69,1.69,0,0,1-.13.82.54.54,0,0,1-.5.21Zm5.1-1.61a3.14,3.14,0,0,0-.15-1,2.27,2.27,0,0,0-.44-.81,2,2,0,0,0-.74-.54,2.44,2.44,0,0,0-1-.2,2.49,2.49,0,0,0-1.83.66,3.23,3.23,0,0,0-.85,1.87Z"/><path d="M192,455.92a3,3,0,0,1-2.23-.82,3.19,3.19,0,0,1-.77-2.26v-6.2h-1.14a.57.57,0,0,1-.37-.14.58.58,0,0,1-.15-.43V445l1.79-.29.56-3a.62.62,0,0,1,.21-.34.61.61,0,0,1,.39-.12h1.38v3.5h4.63l.57-3a.61.61,0,0,1,.2-.34.62.62,0,0,1,.4-.12h1.37v3.5h3v1.91h-3v6a1.21,1.21,0,0,0,.26.81.9.9,0,0,0,.7.29,1.33,1.33,0,0,0,.42-.06l.29-.12.23-.13a.35.35,0,0,1,.19-.06.32.32,0,0,1,.2.06,1,1,0,0,1,.16.18l.8,1.3a4.27,4.27,0,0,1-1.34.74,5.21,5.21,0,0,1-1.57.25,3,3,0,0,1-2.23-.82,3.15,3.15,0,0,1-.78-2.26v-6.2h-4.5v6a1.21,1.21,0,0,0,.26.81.89.89,0,0,0,.7.29,1.22,1.22,0,0,0,.41-.06l.3-.12.22-.13a.35.35,0,0,1,.19-.06.32.32,0,0,1,.2.06,1,1,0,0,1,.16.18l.8,1.3a4.27,4.27,0,0,1-1.34.74A5.21,5.21,0,0,1,192,455.92Z"/><path d="M205.48,450.52a5.09,5.09,0,0,0,.3,1.48,3,3,0,0,0,.63,1,2.55,2.55,0,0,0,.93.61,3.77,3.77,0,0,0,2.3,0,5,5,0,0,0,.82-.33c.24-.12.44-.24.62-.34a1.06,1.06,0,0,1,.52-.15.53.53,0,0,1,.49.25l.77,1a4.57,4.57,0,0,1-1,.88,5.9,5.9,0,0,1-1.16.56,6.59,6.59,0,0,1-1.22.3,8.47,8.47,0,0,1-1.21.08,5.82,5.82,0,0,1-2.15-.38,4.83,4.83,0,0,1-1.73-1.14,5.16,5.16,0,0,1-1.16-1.86,7.24,7.24,0,0,1-.43-2.57,6.29,6.29,0,0,1,.37-2.14,5.12,5.12,0,0,1,1.06-1.74,5,5,0,0,1,1.68-1.18,5.48,5.48,0,0,1,2.23-.43,5.31,5.31,0,0,1,1.94.34,4.23,4.23,0,0,1,1.53,1,4.54,4.54,0,0,1,1,1.58,5.87,5.87,0,0,1,.36,2.13,1.69,1.69,0,0,1-.13.82.53.53,0,0,1-.5.21Zm5.1-1.61a3.14,3.14,0,0,0-.15-1,2.27,2.27,0,0,0-.44-.81,2,2,0,0,0-.74-.54,2.44,2.44,0,0,0-1-.2,2.49,2.49,0,0,0-1.83.66,3.29,3.29,0,0,0-.85,1.87Z"/><path d="M217.51,446.56a4.81,4.81,0,0,1,1.23-1.56,2.64,2.64,0,0,1,1.69-.57,2.08,2.08,0,0,1,1.23.33l-.17,2a.45.45,0,0,1-.16.27.38.38,0,0,1-.27.08,2.58,2.58,0,0,1-.48-.05A3.41,3.41,0,0,0,220,447a2.18,2.18,0,0,0-.79.13,2,2,0,0,0-.62.37,2.61,2.61,0,0,0-.49.59,5.29,5.29,0,0,0-.39.79v6.84H215V444.63h1.57a.86.86,0,0,1,.58.15.81.81,0,0,1,.21.52Z"/><rect class="cls-4" x="1.69" y="211.5" width="246" height="62"/><path d="M45.84,248.74H43.59a.91.91,0,0,1-.61-.19,1.12,1.12,0,0,1-.36-.47l-1.17-3.19H35l-1.17,3.19a1,1,0,0,1-.33.46,1,1,0,0,1-.62.2H30.57l6.16-15.65h3Zm-5.14-5.91-1.9-5.21a8.18,8.18,0,0,1-.3-.82c-.1-.32-.2-.66-.3-1-.09.37-.19.71-.29,1s-.2.6-.29.83l-1.9,5.19Z"/><path d="M52.56,233.09a9.08,9.08,0,0,1,2.71.36,5.31,5.31,0,0,1,1.9,1,4.06,4.06,0,0,1,1.11,1.58,5.54,5.54,0,0,1,.36,2,5.62,5.62,0,0,1-.38,2.08,4.31,4.31,0,0,1-1.13,1.63,5.22,5.22,0,0,1-1.9,1.06,8.64,8.64,0,0,1-2.67.38H50.38v5.51H47.47V233.09Zm0,7.87a4.43,4.43,0,0,0,1.39-.2,2.68,2.68,0,0,0,1-.58,2.24,2.24,0,0,0,.59-.91,3.41,3.41,0,0,0,.2-1.19,3.17,3.17,0,0,0-.2-1.14,2.26,2.26,0,0,0-.58-.87,2.62,2.62,0,0,0-1-.54,4.47,4.47,0,0,0-1.4-.19H50.38V241Z"/><path d="M66,233.09a9.15,9.15,0,0,1,2.72.36,5.35,5.35,0,0,1,1.89,1,4.06,4.06,0,0,1,1.11,1.58,5.54,5.54,0,0,1,.36,2,5.62,5.62,0,0,1-.37,2.08,4.45,4.45,0,0,1-1.14,1.63,5.22,5.22,0,0,1-1.9,1.06,8.55,8.55,0,0,1-2.67.38H63.78v5.51H60.87V233.09ZM66,241a4.54,4.54,0,0,0,1.4-.2,2.85,2.85,0,0,0,1-.58,2.35,2.35,0,0,0,.59-.91,3.42,3.42,0,0,0,.19-1.19,3.17,3.17,0,0,0-.19-1.14,2.28,2.28,0,0,0-.59-.87,2.65,2.65,0,0,0-1-.54,4.58,4.58,0,0,0-1.41-.19H63.78V241Z"/><path d="M77.2,235.4v4.34h5.48V242H77.2v4.42h7v2.33H74.27V233.09h9.88v2.31Z"/><path d="M99.92,233.09v15.65H98.43a1.43,1.43,0,0,1-.58-.11,1.34,1.34,0,0,1-.45-.39l-8.17-10.43q.06.7.06,1.32v9.61H86.73V233.09h1.84a.61.61,0,0,1,.24.07.81.81,0,0,1,.2.14,1.79,1.79,0,0,1,.22.24L97.43,244c0-.25,0-.5-.05-.74s0-.48,0-.69v-9.51Z"/><path d="M117.31,240.91a8.55,8.55,0,0,1-.57,3.17,7.22,7.22,0,0,1-1.62,2.47,7,7,0,0,1-2.5,1.62,8.82,8.82,0,0,1-3.24.57h-6V233.09h6a8.61,8.61,0,0,1,3.24.58,7.13,7.13,0,0,1,2.5,1.61,7.22,7.22,0,0,1,1.62,2.47A8.54,8.54,0,0,1,117.31,240.91Zm-3,0a7.24,7.24,0,0,0-.34-2.31,4.8,4.8,0,0,0-1-1.73,4.31,4.31,0,0,0-1.56-1.09,5.4,5.4,0,0,0-2.06-.38h-3v11h3a5.4,5.4,0,0,0,2.06-.37A4.44,4.44,0,0,0,113,245a4.88,4.88,0,0,0,1-1.73A7.3,7.3,0,0,0,114.32,240.91Z"/><path d="M125.51,248.74v-9.09l-1-.15a1.16,1.16,0,0,1-.5-.23.53.53,0,0,1-.19-.45v-1.09h1.66v-.36a5.37,5.37,0,0,1,.33-1.89,4.21,4.21,0,0,1,1-1.51,4.78,4.78,0,0,1,1.73-1,7.51,7.51,0,0,1,2.46-.36c.3,0,.61,0,.93,0a3.52,3.52,0,0,1,.81.16l-.08,1.38a.31.31,0,0,1-.27.3,3.61,3.61,0,0,1-.62.05,7.27,7.27,0,0,0-1.76.18,2.94,2.94,0,0,0-1.15.55,2,2,0,0,0-.63.91,4,4,0,0,0-.19,1.27v.27H135v11h-2.67v-9.1h-4.13v9.1Z"/><path d="M140.24,239.56a4.84,4.84,0,0,1,1.24-1.56,2.62,2.62,0,0,1,1.69-.57,2.08,2.08,0,0,1,1.23.33l-.17,2a.5.5,0,0,1-.16.27.41.41,0,0,1-.28.08,2.66,2.66,0,0,1-.48-.05,3.31,3.31,0,0,0-.62,0,2.15,2.15,0,0,0-.79.13,1.86,1.86,0,0,0-.62.37,2.37,2.37,0,0,0-.49.59,6.44,6.44,0,0,0-.4.79v6.84h-2.67V237.63h1.57a.85.85,0,0,1,.57.15.87.87,0,0,1,.22.52Z"/><path d="M152.54,239.8a.67.67,0,0,1-.23.24.56.56,0,0,1-.3.07.88.88,0,0,1-.42-.11l-.51-.24a4.73,4.73,0,0,0-.67-.24,3.2,3.2,0,0,0-.88-.11,2.05,2.05,0,0,0-1.24.33,1.06,1.06,0,0,0-.45.88.81.81,0,0,0,.24.6,2.07,2.07,0,0,0,.61.43,7.22,7.22,0,0,0,.87.33c.33.1.66.2,1,.32s.67.25,1,.39a3.63,3.63,0,0,1,.87.57,2.62,2.62,0,0,1,.61.82,2.49,2.49,0,0,1,.24,1.14,3.76,3.76,0,0,1-.29,1.48,3.15,3.15,0,0,1-.85,1.17,4.14,4.14,0,0,1-1.39.77,6.15,6.15,0,0,1-1.91.28,5.91,5.91,0,0,1-1.12-.11,6.72,6.72,0,0,1-1.05-.28,5.72,5.72,0,0,1-.93-.44,4,4,0,0,1-.76-.54l.62-1a.93.93,0,0,1,.28-.28.87.87,0,0,1,.88,0c.15.1.32.2.52.31a3.75,3.75,0,0,0,.69.3,2.83,2.83,0,0,0,1,.14,2.69,2.69,0,0,0,.81-.11,1.91,1.91,0,0,0,.57-.3,1,1,0,0,0,.32-.43,1.25,1.25,0,0,0,.11-.5.89.89,0,0,0-.24-.64,1.9,1.9,0,0,0-.61-.43,4.75,4.75,0,0,0-.88-.33l-1-.32a9.71,9.71,0,0,1-1-.41,3.26,3.26,0,0,1-.87-.59,2.69,2.69,0,0,1-.62-.88,3.1,3.1,0,0,1-.23-1.25,3.19,3.19,0,0,1,.27-1.3,3.08,3.08,0,0,1,.79-1.08,4,4,0,0,1,1.31-.73,5.35,5.35,0,0,1,1.82-.28,5.63,5.63,0,0,1,2.09.38,4.68,4.68,0,0,1,1.57,1Z"/><path d="M159,248.92a2.93,2.93,0,0,1-2.22-.82,3.15,3.15,0,0,1-.78-2.26v-6.2h-1.13a.53.53,0,0,1-.37-.14.58.58,0,0,1-.15-.43V238l1.78-.29.57-3a.56.56,0,0,1,.2-.34.61.61,0,0,1,.39-.12h1.39v3.5h3v1.91h-3v6a1.21,1.21,0,0,0,.25.81.89.89,0,0,0,.7.29,1.25,1.25,0,0,0,.42-.06l.29-.12.22-.13a.39.39,0,0,1,.2-.06.29.29,0,0,1,.19.06.73.73,0,0,1,.16.18l.81,1.3a4.21,4.21,0,0,1-1.35.74A5.16,5.16,0,0,1,159,248.92Z"/><path d="M171.3,232.65v16.09h-2.67V232.65Z"/><path d="M176,243.52a5.43,5.43,0,0,0,.31,1.48,3,3,0,0,0,.63,1,2.51,2.51,0,0,0,.92.61,3.81,3.81,0,0,0,2.31,0,5.37,5.37,0,0,0,.82-.33l.62-.34a1,1,0,0,1,.51-.15.54.54,0,0,1,.5.25l.77,1a4.61,4.61,0,0,1-1,.88,5.82,5.82,0,0,1-1.15.56,6.59,6.59,0,0,1-1.22.3,8.47,8.47,0,0,1-1.21.08,5.91,5.91,0,0,1-2.16-.38,4.92,4.92,0,0,1-1.73-1.14,5.45,5.45,0,0,1-1.16-1.86,7.25,7.25,0,0,1-.42-2.57,6.06,6.06,0,0,1,.37-2.14,5.1,5.1,0,0,1,1-1.74,5,5,0,0,1,1.68-1.18,5.53,5.53,0,0,1,2.24-.43,5.31,5.31,0,0,1,1.94.34,4.11,4.11,0,0,1,1.52,1,4.4,4.4,0,0,1,1,1.58,5.66,5.66,0,0,1,.37,2.13,1.82,1.82,0,0,1-.13.82.54.54,0,0,1-.5.21Zm5.1-1.61a3.14,3.14,0,0,0-.14-1,2.44,2.44,0,0,0-.44-.81,2,2,0,0,0-.74-.54,2.85,2.85,0,0,0-2.87.46,3.17,3.17,0,0,0-.85,1.87Z"/><path d="M189.14,248.92a3,3,0,0,1-2.23-.82,3.15,3.15,0,0,1-.77-2.26v-6.2H185a.53.53,0,0,1-.37-.14.58.58,0,0,1-.15-.43V238l1.79-.29.56-3a.57.57,0,0,1,.21-.34.6.6,0,0,1,.38-.12h1.39v3.5h4.62l.58-3a.56.56,0,0,1,.2-.34.61.61,0,0,1,.39-.12H196v3.5h3v1.91h-3v6a1.16,1.16,0,0,0,.26.81.9.9,0,0,0,.7.29,1.22,1.22,0,0,0,.41-.06l.3-.12.22-.13a.39.39,0,0,1,.2-.06.29.29,0,0,1,.19.06.73.73,0,0,1,.16.18l.81,1.3a4.21,4.21,0,0,1-1.35.74,5.16,5.16,0,0,1-1.57.25,3,3,0,0,1-2.23-.82,3.15,3.15,0,0,1-.78-2.26v-6.2h-4.49v6a1.26,1.26,0,0,0,.25.81.9.9,0,0,0,.7.29,1.25,1.25,0,0,0,.42-.06l.29-.12.22-.13a.39.39,0,0,1,.2-.06.29.29,0,0,1,.19.06,1,1,0,0,1,.17.18l.8,1.3a4.27,4.27,0,0,1-1.34.74A5.21,5.21,0,0,1,189.14,248.92Z"/><path d="M202.63,243.52a5.09,5.09,0,0,0,.3,1.48,3,3,0,0,0,.63,1,2.51,2.51,0,0,0,.92.61,3.81,3.81,0,0,0,2.31,0,5.37,5.37,0,0,0,.82-.33c.24-.12.44-.24.62-.34a1.06,1.06,0,0,1,.51-.15.54.54,0,0,1,.5.25l.77,1a4.61,4.61,0,0,1-1,.88,5.56,5.56,0,0,1-1.15.56,6.59,6.59,0,0,1-1.22.3,8.47,8.47,0,0,1-1.21.08,5.91,5.91,0,0,1-2.16-.38,4.92,4.92,0,0,1-1.73-1.14,5.45,5.45,0,0,1-1.16-1.86A7.25,7.25,0,0,1,200,243a6.06,6.06,0,0,1,.37-2.14,5.12,5.12,0,0,1,1.06-1.74,4.82,4.82,0,0,1,1.67-1.18,5.53,5.53,0,0,1,2.24-.43,5.31,5.31,0,0,1,1.94.34,4.11,4.11,0,0,1,1.52,1,4.56,4.56,0,0,1,1,1.58,5.87,5.87,0,0,1,.36,2.13,1.69,1.69,0,0,1-.13.82.54.54,0,0,1-.5.21Zm5.1-1.61a3.14,3.14,0,0,0-.15-1,2.27,2.27,0,0,0-.44-.81,2,2,0,0,0-.74-.54,2.85,2.85,0,0,0-2.87.46,3.23,3.23,0,0,0-.85,1.87Z"/><path d="M214.65,239.56a4.84,4.84,0,0,1,1.24-1.56,2.62,2.62,0,0,1,1.69-.57,2.08,2.08,0,0,1,1.23.33l-.17,2a.5.5,0,0,1-.16.27.4.4,0,0,1-.27.08,2.75,2.75,0,0,1-.49-.05,3.31,3.31,0,0,0-.62,0,2.15,2.15,0,0,0-.79.13,1.86,1.86,0,0,0-.62.37,2.37,2.37,0,0,0-.49.59,5.29,5.29,0,0,0-.39.79v6.84h-2.68V237.63h1.57a.65.65,0,0,1,.79.67Z"/><rect class="cls-4" x="1.67" y="315.5" width="246" height="62"/><path d="M74.38,352.74H72.13a1,1,0,0,1-.62-.19,1.12,1.12,0,0,1-.36-.47L70,348.89H63.5l-1.17,3.19a1,1,0,0,1-.34.46,1,1,0,0,1-.61.2H59.1l6.16-15.65h3Zm-5.14-5.91-1.91-5.21c-.09-.23-.19-.5-.29-.82s-.2-.66-.3-1c-.1.37-.2.71-.3,1a8.64,8.64,0,0,1-.29.83l-1.89,5.19Z"/><path d="M81.09,337.09a9.15,9.15,0,0,1,2.72.36,5.26,5.26,0,0,1,1.89,1,4.06,4.06,0,0,1,1.11,1.58,5.34,5.34,0,0,1,.37,2,5.62,5.62,0,0,1-.38,2.08,4.34,4.34,0,0,1-1.14,1.63,5.14,5.14,0,0,1-1.9,1.06,8.55,8.55,0,0,1-2.67.38H78.92v5.51H76V337.09Zm0,7.87a4.5,4.5,0,0,0,1.4-.2,2.68,2.68,0,0,0,1-.58,2.35,2.35,0,0,0,.59-.91,3.42,3.42,0,0,0,.19-1.19,3.17,3.17,0,0,0-.19-1.14,2.28,2.28,0,0,0-.59-.87,2.5,2.5,0,0,0-1-.54,4.58,4.58,0,0,0-1.41-.19H78.92V345Z"/><path d="M94.5,337.09a9.08,9.08,0,0,1,2.71.36,5.31,5.31,0,0,1,1.9,1,4.06,4.06,0,0,1,1.11,1.58,5.54,5.54,0,0,1,.36,2,5.62,5.62,0,0,1-.38,2.08,4.23,4.23,0,0,1-1.14,1.63,5.06,5.06,0,0,1-1.9,1.06,8.53,8.53,0,0,1-2.66.38H92.32v5.51H89.41V337.09Zm0,7.87a4.43,4.43,0,0,0,1.39-.2,2.68,2.68,0,0,0,1-.58,2.24,2.24,0,0,0,.59-.91,3.41,3.41,0,0,0,.2-1.19,3.17,3.17,0,0,0-.2-1.14,2.26,2.26,0,0,0-.58-.87,2.62,2.62,0,0,0-1-.54,4.47,4.47,0,0,0-1.4-.19H92.32V345Z"/><path d="M105.73,339.4v4.34h5.48V346h-5.48v4.42h7v2.33h-9.87V337.09h9.87v2.31Z"/><path d="M128.46,337.09v15.65H127a1.14,1.14,0,0,1-1-.5l-8.18-10.43a12.45,12.45,0,0,1,.07,1.32v9.61h-2.57V337.09h1.85a.61.61,0,0,1,.24.07,1.05,1.05,0,0,1,.2.14l.21.24L126,348c0-.25,0-.5,0-.74s0-.48,0-.69v-9.51Z"/><path d="M145.85,344.91a8.36,8.36,0,0,1-.58,3.17,7.19,7.19,0,0,1-1.61,2.47,7.11,7.11,0,0,1-2.5,1.62,8.91,8.91,0,0,1-3.25.57h-6V337.09h6a8.7,8.7,0,0,1,3.25.58,7.09,7.09,0,0,1,4.11,4.08A8.34,8.34,0,0,1,145.85,344.91Zm-3,0a7.24,7.24,0,0,0-.34-2.31,4.81,4.81,0,0,0-1-1.73,4.31,4.31,0,0,0-1.56-1.09,5.36,5.36,0,0,0-2.06-.38h-3v11h3a5.37,5.37,0,0,0,2.06-.37,4.44,4.44,0,0,0,1.56-1.09,4.9,4.9,0,0,0,1-1.73A7.3,7.3,0,0,0,142.86,344.91Z"/><path d="M153.64,342.68a5.51,5.51,0,0,1-.7-1.78,4.9,4.9,0,0,1,0-1.83,5.09,5.09,0,0,1,.63-1.73,5.47,5.47,0,0,1,1.29-1.49l.84.51a.35.35,0,0,1,.19.35.5.5,0,0,1-.14.32,3,3,0,0,0-.43.72,3.27,3.27,0,0,0-.29,1,3.92,3.92,0,0,0,0,1.18,3.27,3.27,0,0,0,.48,1.26.62.62,0,0,1,.11.55.57.57,0,0,1-.36.33Zm3.6,0a5.53,5.53,0,0,1-.71-1.78,5,5,0,0,1,.6-3.56,5.52,5.52,0,0,1,1.3-1.49l.83.51a.36.36,0,0,1,.2.35.56.56,0,0,1-.15.32,3.33,3.33,0,0,0-.43.72,3.27,3.27,0,0,0-.28,1,3.9,3.9,0,0,0,0,1.18,3.47,3.47,0,0,0,.49,1.26.65.65,0,0,1,.11.55.59.59,0,0,1-.36.33Z"/><path d="M160.93,343.18a6.58,6.58,0,0,1,4.61-1.75,4.35,4.35,0,0,1,1.74.32,3.65,3.65,0,0,1,1.3.88,3.73,3.73,0,0,1,.81,1.36,5.38,5.38,0,0,1,.28,1.74v7h-1.22a1.3,1.3,0,0,1-.58-.11.8.8,0,0,1-.33-.46l-.23-.8c-.29.25-.56.47-.83.66a4.57,4.57,0,0,1-1.76.78,5.22,5.22,0,0,1-1.09.11,4.42,4.42,0,0,1-1.29-.19,3,3,0,0,1-1-.57,2.53,2.53,0,0,1-.67-.94,3.36,3.36,0,0,1-.24-1.31,2.5,2.5,0,0,1,.6-1.64,3.72,3.72,0,0,1,.83-.71,5.2,5.2,0,0,1,1.25-.59,12.13,12.13,0,0,1,1.72-.41,18,18,0,0,1,2.26-.18v-.65a2.44,2.44,0,0,0-.48-1.66,1.78,1.78,0,0,0-1.38-.53,3.24,3.24,0,0,0-1.07.15,4.41,4.41,0,0,0-.75.34l-.59.34a1.21,1.21,0,0,1-.6.15.75.75,0,0,1-.47-.14,1.29,1.29,0,0,1-.32-.34Zm6.13,4.82a14.73,14.73,0,0,0-1.95.2,5.42,5.42,0,0,0-1.27.37,1.75,1.75,0,0,0-.68.53,1.17,1.17,0,0,0-.21.66,1.16,1.16,0,0,0,.42,1,1.83,1.83,0,0,0,1.09.3,3.13,3.13,0,0,0,1.42-.29,4.31,4.31,0,0,0,1.18-.91Z"/><path d="M182,341.63l-6,14.16a1,1,0,0,1-.31.43.92.92,0,0,1-.58.15h-2l2.08-4.46-4.49-10.28H173a.69.69,0,0,1,.49.16.84.84,0,0,1,.26.34l2.37,5.76c.07.2.14.39.2.59l.15.59.2-.6c.06-.2.13-.39.21-.59l2.23-5.75a.91.91,0,0,1,.29-.36.77.77,0,0,1,.45-.14Z"/><path d="M185.1,336a5.32,5.32,0,0,1,.71,1.78,5,5,0,0,1-.6,3.56,5.35,5.35,0,0,1-1.3,1.49l-.84-.51a.38.38,0,0,1-.15-.16.39.39,0,0,1,0-.18.58.58,0,0,1,0-.18.42.42,0,0,1,.11-.15,3.33,3.33,0,0,0,.43-.72,3.69,3.69,0,0,0,.29-1,3.93,3.93,0,0,0,0-1.18,3.3,3.3,0,0,0-.49-1.26.64.64,0,0,1-.1-.55.55.55,0,0,1,.35-.33Zm3.6,0a5.29,5.29,0,0,1,.7,1.78,4.9,4.9,0,0,1,0,1.83,5.33,5.33,0,0,1-.64,1.73,5.47,5.47,0,0,1-1.29,1.49l-.85-.51a.38.38,0,0,1-.15-.16.39.39,0,0,1,0-.18.61.61,0,0,1,.05-.18.4.4,0,0,1,.1-.15,3,3,0,0,0,.43-.72,3.36,3.36,0,0,0,.29-1,3.92,3.92,0,0,0,0-1.18,3.47,3.47,0,0,0-.49-1.26.65.65,0,0,1-.11-.55.57.57,0,0,1,.36-.33Z"/><line class="cls-1" x1="124.67" y1="277" x2="124.67" y2="300.67"/><polygon class="cls-2" points="115.78 293.93 124.67 297.71 133.56 293.93 124.67 315 115.78 293.93"/><line class="cls-1" x1="124.67" y1="380" x2="124.67" y2="403.67"/><polygon class="cls-2" points="115.78 396.93 124.67 400.71 133.56 396.93 124.67 418 115.78 396.93"/><line class="cls-1" x1="124.67" y1="69" x2="124.67" y2="92.67"/><polygon class="cls-2" points="115.78 85.93 124.67 89.71 133.56 85.93 124.67 107 115.78 85.93"/><line class="cls-1" x1="124.67" y1="482" x2="124.67" y2="505.67"/><polygon class="cls-2" points="115.78 498.93 124.67 502.71 133.56 498.93 124.67 520 115.78 498.93"/><path d="M106.53,546.79v4.34H112v2.25h-5.48v4.42h7v2.33h-9.87V544.48h9.87v2.31Z"/><path d="M129.26,544.48v15.65h-1.49a1.36,1.36,0,0,1-.58-.11,1.34,1.34,0,0,1-.45-.39l-8.18-10.43a12.45,12.45,0,0,1,.07,1.32v9.61h-2.57V544.48h1.85a.61.61,0,0,1,.24.07,1.05,1.05,0,0,1,.2.14l.21.24,8.21,10.48c0-.25,0-.5,0-.75s0-.47,0-.68v-9.51Z"/><path d="M146.65,552.3a8.31,8.31,0,0,1-.58,3.16,7.12,7.12,0,0,1-4.11,4.1,8.91,8.91,0,0,1-3.25.57h-6V544.48h6a8.7,8.7,0,0,1,3.25.58,7.09,7.09,0,0,1,4.11,4.08A8.34,8.34,0,0,1,146.65,552.3Zm-3,0a7.19,7.19,0,0,0-.34-2.31,4.81,4.81,0,0,0-1-1.73,4.31,4.31,0,0,0-1.56-1.09,5.36,5.36,0,0,0-2.06-.38h-3v11h3a5.37,5.37,0,0,0,2.06-.37,4.44,4.44,0,0,0,1.56-1.09,4.9,4.9,0,0,0,1-1.73A7.3,7.3,0,0,0,143.66,552.3Z"/><ellipse class="cls-3" cx="124.67" cy="552.5" rx="103" ry="31.5"/></svg>